HIERARCHY
ROOT Hips
{
	OFFSET -0.001795 -0.223333 0.028219
	CHANNELS 6 Xposition Yposition Zposition Zrotation Yrotation Xrotation 
	JOINT LeftUpLeg
	{
		OFFSET 0.069520 -0.091406 -0.006815
		CHANNELS 3 Zrotation Yrotation Xrotation
		JOINT LeftLeg
		{
			OFFSET 0.034277 -0.375199 -0.004496
			CHANNELS 3 Zrotation Yrotation Xrotation
			JOINT LeftFoot
			{
				OFFSET -0.013596 -0.397961 -0.043693
				CHANNELS 3 Zrotation Yrotation Xrotation
				JOINT LeftToe
				{
					OFFSET 0.026358 -0.055791 0.119288
					CHANNELS 3 Zrotation Yrotation Xrotation
					End Site
					{
						OFFSET 0.000000 0.000000 0.000000
					}
				}
			}
		}
	}
	JOINT RightUpLeg
	{
		OFFSET -0.067670 -0.090522 -0.004320
		CHANNELS 3 Zrotation Yrotation Xrotation
		JOINT RightLeg
		{
			OFFSET -0.038290 -0.382569 -0.008850
			CHANNELS 3 Zrotation Yrotation Xrotation
			JOINT RightFoot
			{
				OFFSET 0.015774 -0.398415 -0.042312
				CHANNELS 3 Zrotation Yrotation Xrotation
				JOINT RightToe
				{
					OFFSET -0.025372 -0.048144 0.123348
					CHANNELS 3 Zrotation Yrotation Xrotation
					End Site
					{
						OFFSET 0.000000 0.000000 0.000000
					}
				}
			}
		}
	}
	JOINT Spine
	{
		OFFSET -0.002533 0.108963 -0.026696
		CHANNELS 3 Zrotation Yrotation Xrotation
		JOINT Spine1
		{
			OFFSET 0.005487 0.135180 0.001092
			CHANNELS 3 Zrotation Yrotation Xrotation
			JOINT Spine2
			{
				OFFSET 0.001457 0.052922 0.025425
				CHANNELS 3 Zrotation Yrotation Xrotation
				JOINT Neck
				{
					OFFSET -0.002778 0.213870 -0.042857
					CHANNELS 3 Zrotation Yrotation Xrotation
					JOINT Head
					{
						OFFSET 0.005152 0.064970 0.051349
						CHANNELS 3 Zrotation Yrotation Xrotation
						End Site
						{
							OFFSET 0.000000 0.000000 0.000000
						}
					}
				}
				JOINT LeftShoulder
				{
					OFFSET 0.078845 0.121749 -0.034090
					CHANNELS 3 Zrotation Yrotation Xrotation
					JOINT LeftArm
					{
						OFFSET 0.090977 0.030469 -0.008868
						CHANNELS 3 Zrotation Yrotation Xrotation
						JOINT LeftForeArm
						{
							OFFSET 0.259612 -0.012772 -0.027456
							CHANNELS 3 Zrotation Yrotation Xrotation
							JOINT LeftHand
							{
								OFFSET 0.249234 0.008986 -0.001171
								CHANNELS 3 Zrotation Yrotation Xrotation
								End Site
								{
									OFFSET 0.000000 0.000000 0.000000
								}
							}
						}
					}
				}
				JOINT RightShoulder
				{
					OFFSET -0.081759 0.118833 -0.038615
					CHANNELS 3 Zrotation Yrotation Xrotation
					JOINT RightArm
					{
						OFFSET -0.096012 0.032551 -0.009143
						CHANNELS 3 Zrotation Yrotation Xrotation
						JOINT RightForeArm
						{
							OFFSET -0.253742 -0.013329 -0.021401
							CHANNELS 3 Zrotation Yrotation Xrotation
							JOINT RightHand
							{
								OFFSET -0.255298 0.007772 -0.005559
								CHANNELS 3 Zrotation Yrotation Xrotation
								End Site
								{
									OFFSET 0.000000 0.000000 0.000000
								}
							}
						}
					}
				}
			}
		}
	}
}
MOTION
Frames: 10
Frame Time: 0.050000
0.000000 0.947705 0.000000 -1.105773 3.433777 3.564486 -0.156483 0.395920 4.424560 1.297347 0.157850 -6.596995 -3.261904 -4.323920 4.265404 0.000000 0.000000 0.000000 3.043231 -0.320439 1.818674 -1.317302 0.011222 -2.644774 3.173018 6.451135 2.816118 0.000000 0.000000 0.000000 2.610989 0.096586 -2.467449 0.426557 -0.269951 1.412835 -2.424724 1.685794 5.756394 6.546254 -1.583535 -21.800735 0.000000 0.000000 0.000000 -26.860687 -6.586029 -0.048267 -37.940202 3.398544 -5.001873 4.151033 -21.284850 -0.085817 0.000000 0.000000 0.000000 24.386911 2.839725 0.759325 44.536354 -0.594961 -4.915187 -6.214001 23.810084 -0.195943 0.000000 0.000000 0.000000 
-0.000042 0.946519 0.002014 -1.361843 3.505755 3.885623 0.722408 0.329113 4.334157 0.103065 0.227429 -7.153824 -3.299249 -4.618742 3.890093 0.000000 0.000000 0.000000 3.078445 -0.188063 0.781205 -0.819571 0.008780 -1.775366 3.070839 6.861795 1.752384 0.000000 0.000000 0.000000 3.099041 0.114726 -2.812220 -0.153551 -0.013977 2.109743 -2.915448 1.764978 5.558105 7.521239 -1.735306 -24.117406 0.000000 0.000000 0.000000 -25.831212 -6.661536 0.003096 -40.256548 3.221532 -5.270000 6.729265 -20.921542 -0.570260 0.000000 0.000000 0.000000 25.067693 1.387679 -0.090108 45.508497 -1.416865 -5.313003 -8.139335 25.117860 -0.557940 0.000000 0.000000 0.000000 
-0.000247 0.945891 0.004206 -1.241997 3.454220 4.270134 1.062640 0.277971 3.968491 -0.009959 0.209381 -6.404845 -3.705968 -5.667068 3.517724 0.000000 0.000000 0.000000 3.058045 -0.142121 0.409862 -0.556662 -0.034851 -2.186994 3.066899 7.204238 1.196333 0.000000 0.000000 0.000000 3.404150 0.109424 -2.799440 -0.331347 0.148349 0.112230 -3.012963 1.653552 7.284939 7.250562 -1.717975 -23.662617 0.000000 0.000000 0.000000 -24.909192 -6.736046 0.253950 -41.799147 3.636132 -5.797560 5.166930 -20.554960 -0.260718 0.000000 0.000000 0.000000 24.706564 1.916431 0.269219 46.368434 -2.158151 -5.785924 -8.284272 25.492013 -0.586605 0.000000 0.000000 0.000000 
-0.000733 0.946124 0.006775 -1.467381 3.541608 4.514319 1.329853 0.276061 4.202904 -0.112832 0.219754 -6.611055 -4.204400 -6.727456 3.431445 0.000000 0.000000 0.000000 2.997609 -0.117753 0.225535 0.380298 -0.123544 -2.262334 3.304425 7.730944 1.319853 0.000000 0.000000 0.000000 3.494426 0.139893 -3.295751 -0.589151 0.236946 1.092353 -2.730709 1.579109 6.595731 7.632418 -1.801373 -24.393609 0.000000 0.000000 0.000000 -25.950201 -6.834919 0.223118 -41.303945 5.226624 -6.153686 5.232961 -20.229324 -0.265788 0.000000 0.000000 0.000000 25.176647 2.096477 0.313483 45.585464 -3.264966 -6.011796 -8.737313 25.188176 -0.687653 0.000000 0.000000 0.000000 
-0.001578 0.945790 0.009282 -1.408632 3.394120 4.536424 1.217360 0.318410 4.653866 -0.065880 0.220115 -6.676754 -4.203148 -6.919353 3.140821 0.000000 0.000000 0.000000 3.119604 -0.119577 0.201057 0.373599 -0.129701 -2.448547 3.079025 7.490963 0.803079 0.000000 0.000000 0.000000 3.436357 0.148306 -3.420108 -0.485171 0.179440 1.315526 -2.978655 1.441365 6.255776 7.543683 -1.958571 -23.094284 0.000000 0.000000 0.000000 -25.985851 -6.816339 0.256468 -41.017231 6.673113 -6.548748 3.884741 -20.989508 -0.027464 0.000000 0.000000 0.000000 24.679000 1.672469 -0.013617 45.305712 -3.761848 -6.084266 -8.426880 25.019974 -0.635711 0.000000 0.000000 0.000000 
-0.002750 0.945272 0.011678 -1.396079 3.280777 4.732508 1.323498 0.337241 5.009782 0.060250 0.221551 -6.890861 -4.316685 -7.155806 3.141764 0.000000 0.000000 0.000000 2.986309 -0.098931 0.059187 0.851550 -0.177782 -2.617121 3.017466 7.351866 0.770161 0.000000 0.000000 0.000000 3.183248 0.158721 -3.623597 -0.315681 0.079847 1.790050 -2.859713 1.144162 6.147978 6.988440 -1.629414 -23.621215 0.000000 0.000000 0.000000 -26.397302 -6.990599 0.474091 -40.937562 6.830615 -6.607471 3.133943 -20.321380 0.122695 0.000000 0.000000 0.000000 24.766732 2.279198 0.223417 44.877667 -3.678264 -5.956238 -9.440382 24.246353 -0.828002 0.000000 0.000000 0.000000 
-0.004340 0.944970 0.013894 -1.307975 2.792899 4.735573 1.318525 0.347407 5.081722 -0.096656 0.213046 -6.340173 -4.078087 -7.006985 2.653597 0.000000 0.000000 0.000000 3.233883 -0.047357 -0.416374 0.552206 -0.135331 -2.172285 2.850973 7.294091 0.194395 0.000000 0.000000 0.000000 3.045318 0.141229 -3.342449 -0.272550 0.068467 1.616721 -2.993176 1.218589 6.501151 7.050737 -1.647100 -23.932228 0.000000 0.000000 0.000000 -26.500307 -7.462599 0.838232 -40.504627 7.512537 -6.777027 2.579318 -20.044113 0.226686 0.000000 0.000000 0.000000 24.827956 2.565722 0.355070 44.144887 -3.345687 -5.761843 -10.191285 23.738470 -0.954289 0.000000 0.000000 0.000000 
-0.006246 0.945051 0.016216 -1.220602 2.075599 4.901875 1.066301 0.370165 5.058735 0.223470 0.179884 -5.753633 -3.669408 -6.590000 2.027371 0.000000 0.000000 0.000000 3.541017 0.009279 -0.954577 0.586104 -0.119735 -1.651586 2.544826 6.936416 -0.473464 0.000000 0.000000 0.000000 2.801411 0.123160 -3.063253 -0.377762 0.124103 1.656270 -2.500834 1.184105 6.732961 6.262268 -1.268240 -24.178790 0.000000 0.000000 0.000000 -26.606105 -7.598641 1.124668 -39.983563 7.719132 -6.805811 1.965092 -19.894823 0.347473 0.000000 0.000000 0.000000 24.870483 3.196953 0.577322 42.974108 -2.798471 -5.404395 -11.264979 22.855370 -1.127881 0.000000 0.000000 0.000000 
-0.008535 0.945388 0.019224 -1.048421 1.652466 5.242751 1.014195 0.373874 5.021750 -0.034187 0.190820 -5.647358 -3.629591 -6.490131 2.080192 0.000000 0.000000 0.000000 3.628285 0.066375 -1.444701 0.721766 -0.116830 -1.202495 2.158637 6.146829 -0.824495 0.000000 0.000000 0.000000 2.433112 0.118017 -3.013136 -0.213217 0.041016 1.814957 -2.333014 0.954836 6.744745 5.871790 -1.079711 -24.533400 0.000000 0.000000 0.000000 -26.223985 -7.852226 1.496648 -39.357309 7.954270 -6.803733 2.324587 -19.416755 0.292857 0.000000 0.000000 0.000000 24.577183 4.248177 1.062131 42.502262 -2.284002 -5.125300 -12.865425 21.554622 -1.339270 0.000000 0.000000 0.000000 
-0.011189 0.945414 0.023396 -0.949039 1.514196 5.381844 1.202650 0.383944 5.316253 -0.040446 0.187259 -5.519145 -3.485908 -6.236216 2.013796 0.000000 0.000000 0.000000 3.855065 0.063548 -1.479524 0.650337 -0.099504 -0.898639 1.753490 5.401220 -1.336426 0.000000 0.000000 0.000000 1.990521 0.110014 -2.874442 -0.051026 -0.032115 1.644466 -2.015603 0.926076 7.049908 5.603337 -0.946027 -24.711429 0.000000 0.000000 0.000000 -26.285864 -7.982595 1.650764 -38.136845 8.074445 -6.632756 2.281757 -19.451198 0.305230 0.000000 0.000000 0.000000 24.307030 4.559610 1.214161 41.750437 -2.269294 -5.031253 -13.170118 20.660865 -1.327829 0.000000 0.000000 0.000000 
